<svg xmlns="http://www.w3.org/2000/svg" fill="#000" height="123" viewBox="0 0 123 123" width="123">
    <g>
        <path d="m40.8504 5.89276c3.3847-3.38475 7.8796-5.89276 13.0735-5.89276h51.3541c9.629 0 17.507 7.81993 17.507 17.5073v51.2967c0 4.3768-1.579 8.4019-4.263 11.4949-7.762 8.6952-33.9042 33.7901-42.1327 40.9101-1.9841 1.692-4.8425 1.693-7.5853 1.693-1.459 0-57.1325 0-57.1325 0-6.41931 0-11.6715-5.194-11.6715-11.672 0-16.9819 0-47.8531 0-59.6997 0-3.0929 1.2246-6.0687 3.44219-8.2863 9.80411-9.8041 29.70501-29.648 37.40821-37.35124z"/>
        <path d="m111.105 17.5047v51.2967c0 3.268-2.626 5.8357-5.836 5.8357h-51.3536c-3.2097 0-5.8358-2.5677-5.8358-5.8357v-51.2967c0-3.2097 2.6261-5.8358 5.8358-5.8358h51.3536c3.21 0 5.836 2.6261 5.836 5.8358z" fill="#fff"/>
    </g>
</svg>