<svg width="20" height="16" viewBox="0 0 20 16" fill="none" xmlns="http://www.w3.org/2000/svg">
<path d="M18 0H2C1.4713 0.00264352 0.965159 0.214524 0.592247 0.58931C0.219334 0.964097 0.00999338 1.4713 0.00999999 2L0 14C0.00158273 14.5299 0.212805 15.0377 0.587535 15.4125C0.962265 15.7872 1.47005 15.9984 2 16H18C18.5299 15.9984 19.0377 15.7872 19.4125 15.4125C19.7872 15.0377 19.9984 14.5299 20 14V2C19.9984 1.47005 19.7872 0.962265 19.4125 0.587535C19.0377 0.212805 18.5299 0.00158273 18 0V0ZM18 4L10 9L2 4V2L10 7L18 2V4Z" fill="#A1A1AA"/>
</svg>
