<svg width="28" height="34" viewBox="0 0 28 34" fill="none" xmlns="http://www.w3.org/2000/svg">
<path d="M12 0C5.37525 0 0 4.83825 0 10.8C0 20.4 12 33.6 12 33.6C12 33.6 24 20.4 24 10.8C24 4.83825 18.6248 0 12 0ZM12 16.8C11.0507 16.8 10.1226 16.5185 9.33326 15.9911C8.54391 15.4636 7.92868 14.714 7.56538 13.8369C7.20208 12.9598 7.10702 11.9947 7.29223 11.0636C7.47744 10.1325 7.9346 9.27718 8.60589 8.60589C9.27718 7.93459 10.1325 7.47744 11.0636 7.29223C11.9947 7.10702 12.9598 7.20208 13.8369 7.56538C14.714 7.92868 15.4636 8.54391 15.9911 9.33326C16.5185 10.1226 16.8 11.0506 16.8 12C16.7986 13.2726 16.2925 14.4927 15.3926 15.3926C14.4927 16.2925 13.2726 16.7986 12 16.8Z" fill="#A1A1AA"/>
</svg>
