<svg width="24" height="26" viewBox="0 0 24 26" fill="none" xmlns="http://www.w3.org/2000/svg">
<path d="M23.1671 18.0001V21.0201C23.1683 21.3001 23.1109 21.5773 22.9987 21.8339C22.8865 22.0905 22.722 22.3208 22.5156 22.5101C22.3093 22.6994 22.0657 22.8436 21.8004 22.9333C21.5351 23.023 21.254 23.0563 20.9751 23.0311C17.8819 22.6944 14.9107 21.6371 12.3001 19.9441C9.87024 18.4001 7.81013 16.34 6.26613 13.9101C4.56571 11.2871 3.50712 8.30045 3.17613 5.1921C3.151 4.91404 3.18405 4.63379 3.27316 4.3692C3.36228 4.10462 3.50551 3.86148 3.69374 3.65528C3.88197 3.44909 4.11108 3.28434 4.36647 3.17154C4.62186 3.05874 4.89794 3.00035 5.17713 3.0001H8.19413C8.68219 2.99531 9.15533 3.16819 9.52533 3.48649C9.89534 3.8048 10.137 4.2468 10.2051 4.7301C10.3312 5.69547 10.566 6.6435 10.9051 7.5561C11.0404 7.91609 11.0697 8.30733 10.9894 8.68343C10.9091 9.05954 10.7226 9.40473 10.4521 9.6781L9.17913 10.9541C10.6107 13.4719 12.6953 15.5565 15.2131 16.9881L16.4901 15.7111C16.7635 15.4406 17.1087 15.2541 17.4848 15.1738C17.8609 15.0936 18.2521 15.1228 18.6121 15.2581C19.5247 15.5972 20.4728 15.8321 21.4381 15.9581C21.9266 16.0271 22.3727 16.2733 22.6915 16.6498C23.0103 17.0263 23.1796 17.5069 23.1671 18.0001Z" fill="#A1A1AA"/>
</svg>
